<?xml version="1.0" encoding="utf-8"?>
<svg viewBox="0 0 500 500" xmlns="http://www.w3.org/2000/svg" xmlns:bx="https://boxy-svg.com">
  <defs>
    <bx:grid x="0" y="0" width="16.119" height="16.119"/>
  </defs>
  <path d="M 435.213 0 C 467.451 0 500 32.238 500 64.476 C 500 64.476 499.689 435.057 499.689 435.213 C 499.689 467.451 467.451 500 435.213 500 C 433.351 500 96.714 499.689 64.476 499.689 C 32.238 499.689 0 467.451 0 435.213 C 0 435.109 0 64.476 0 64.476 C 0 32.238 32.238 0 64.476 0 C 64.476 0 435.109 0 435.213 0 Z M 179.069 157.257 L 252.314 157.257 L 252.314 130.374 L 78.141 130.374 L 78.141 157.257 L 151.721 157.257 L 151.721 392.363 L 179.069 392.363 L 179.069 157.257 Z M 314.852 280.006 L 411.614 280.006 L 411.614 253.311 L 314.852 253.311 L 314.852 157.257 L 417.857 157.257 L 417.857 130.374 L 287.66 130.374 L 287.66 392.363 L 314.852 392.363 L 314.852 280.006 Z" style="stroke: rgb(0, 0, 0); fill: rgb(180, 242, 255);"/>
  <path d="M 178.758 156.946 L 252.003 156.946 L 252.003 130.063 L 77.83 130.063 L 77.83 156.946 L 151.41 156.946 L 151.41 392.052 L 178.758 392.052 Z M 314.541 279.695 L 411.303 279.695 L 411.303 253 L 314.541 253 L 314.541 156.946 L 417.546 156.946 L 417.546 130.063 L 287.349 130.063 L 287.349 392.052 L 314.541 392.052 Z" style="stroke: rgb(0, 0, 0); fill: rgb(242, 122, 255); stroke-width: 7px;"/>
</svg>